<mxfile host="drawio-plugin" modified="2023-12-12T11:14:39.795Z" agent="5.0 (X11; Linux x86_64) AppleWebKit/537.36 (KHTML, like Gecko) Chrome/111.0.0.0 Safari/537.36" etag="CcAETq1b31lphj1wmCXA" version="20.5.3" type="embed"><diagram name="Page-1" id="6c_ohbftm7qWtLkXLV9D"><mxGraphModel dx="1378" dy="1921" grid="1" gridSize="10" guides="1" tooltips="1" connect="1" arrows="1" fold="1" page="1" pageScale="1" pageWidth="827" pageHeight="1169" math="0" shadow="0"><root><mxCell id="0"/><mxCell id="1" parent="0"/><mxCell id="f8bVFRr4BjQ2tfwV-ElS-16" value="" style="edgeStyle=orthogonalEdgeStyle;rounded=0;orthogonalLoop=1;jettySize=auto;html=1;" parent="1" target="f8bVFRr4BjQ2tfwV-ElS-15" edge="1"><mxGeometry relative="1" as="geometry"><mxPoint x="574" y="500" as="sourcePoint"/><Array as="points"><mxPoint x="624" y="500"/><mxPoint x="624" y="401"/></Array></mxGeometry></mxCell><mxCell id="f8bVFRr4BjQ2tfwV-ElS-18" style="edgeStyle=orthogonalEdgeStyle;rounded=0;orthogonalLoop=1;jettySize=auto;html=1;" parent="1" source="f8bVFRr4BjQ2tfwV-ElS-1" target="f8bVFRr4BjQ2tfwV-ElS-17" edge="1"><mxGeometry relative="1" as="geometry"><Array as="points"><mxPoint x="624" y="500"/><mxPoint x="624" y="680"/></Array></mxGeometry></mxCell><mxCell id="f8bVFRr4BjQ2tfwV-ElS-21" style="edgeStyle=orthogonalEdgeStyle;rounded=0;orthogonalLoop=1;jettySize=auto;html=1;" parent="1" target="f8bVFRr4BjQ2tfwV-ElS-20" edge="1"><mxGeometry relative="1" as="geometry"><Array as="points"><mxPoint x="574" y="500"/><mxPoint x="624" y="500"/><mxPoint x="624" y="150"/></Array><mxPoint x="574" y="500" as="sourcePoint"/></mxGeometry></mxCell><mxCell id="f8bVFRr4BjQ2tfwV-ElS-30" style="edgeStyle=orthogonalEdgeStyle;rounded=0;orthogonalLoop=1;jettySize=auto;html=1;" parent="1" source="f8bVFRr4BjQ2tfwV-ElS-1" target="f8bVFRr4BjQ2tfwV-ElS-29" edge="1"><mxGeometry relative="1" as="geometry"/></mxCell><mxCell id="f8bVFRr4BjQ2tfwV-ElS-1" value="&lt;div&gt;Saisonnier&lt;/div&gt;" style="shape=umlActor;verticalLabelPosition=top;verticalAlign=bottom;html=1;outlineConnect=0;labelPosition=center;align=center;" parent="1" vertex="1"><mxGeometry x="544" y="470" width="30" height="60" as="geometry"/></mxCell><mxCell id="f8bVFRr4BjQ2tfwV-ElS-10" style="edgeStyle=orthogonalEdgeStyle;rounded=0;orthogonalLoop=1;jettySize=auto;html=1;" parent="1" source="f8bVFRr4BjQ2tfwV-ElS-2" target="f8bVFRr4BjQ2tfwV-ElS-9" edge="1"><mxGeometry relative="1" as="geometry"/></mxCell><mxCell id="f8bVFRr4BjQ2tfwV-ElS-2" value="Admin" style="shape=umlActor;verticalLabelPosition=bottom;verticalAlign=top;html=1;outlineConnect=0;" parent="1" vertex="1"><mxGeometry x="164" y="990" width="30" height="60" as="geometry"/></mxCell><mxCell id="f8bVFRr4BjQ2tfwV-ElS-8" style="edgeStyle=orthogonalEdgeStyle;rounded=0;orthogonalLoop=1;jettySize=auto;html=1;entryX=0;entryY=0.5;entryDx=0;entryDy=0;" parent="1" source="f8bVFRr4BjQ2tfwV-ElS-3" target="f8bVFRr4BjQ2tfwV-ElS-22" edge="1"><mxGeometry relative="1" as="geometry"><Array as="points"/></mxGeometry></mxCell><mxCell id="f8bVFRr4BjQ2tfwV-ElS-19" style="edgeStyle=orthogonalEdgeStyle;rounded=0;orthogonalLoop=1;jettySize=auto;html=1;" parent="1" source="f8bVFRr4BjQ2tfwV-ElS-3" target="f8bVFRr4BjQ2tfwV-ElS-17" edge="1"><mxGeometry relative="1" as="geometry"><Array as="points"><mxPoint x="624" y="880"/><mxPoint x="624" y="700"/></Array></mxGeometry></mxCell><mxCell id="f8bVFRr4BjQ2tfwV-ElS-23" style="edgeStyle=orthogonalEdgeStyle;rounded=0;orthogonalLoop=1;jettySize=auto;html=1;entryX=0;entryY=0.5;entryDx=0;entryDy=0;" parent="1" source="f8bVFRr4BjQ2tfwV-ElS-3" target="f8bVFRr4BjQ2tfwV-ElS-7" edge="1"><mxGeometry relative="1" as="geometry"><Array as="points"><mxPoint x="624" y="880"/><mxPoint x="624" y="960"/></Array></mxGeometry></mxCell><mxCell id="f8bVFRr4BjQ2tfwV-ElS-27" style="edgeStyle=orthogonalEdgeStyle;rounded=0;orthogonalLoop=1;jettySize=auto;html=1;" parent="1" source="f8bVFRr4BjQ2tfwV-ElS-3" target="f8bVFRr4BjQ2tfwV-ElS-26" edge="1"><mxGeometry relative="1" as="geometry"/></mxCell><mxCell id="f8bVFRr4BjQ2tfwV-ElS-3" value="Employeur" style="shape=umlActor;verticalLabelPosition=bottom;verticalAlign=top;html=1;outlineConnect=0;" parent="1" vertex="1"><mxGeometry x="544" y="850" width="30" height="60" as="geometry"/></mxCell><mxCell id="f8bVFRr4BjQ2tfwV-ElS-7" value="Gestion des offres d'emploi" style="rounded=0;whiteSpace=wrap;html=1;" parent="1" vertex="1"><mxGeometry x="684" y="930" width="120" height="60" as="geometry"/></mxCell><mxCell id="f8bVFRr4BjQ2tfwV-ElS-9" value="Gestion des utilisateurs" style="rounded=0;whiteSpace=wrap;html=1;" parent="1" vertex="1"><mxGeometry x="314" y="990" width="120" height="60" as="geometry"/></mxCell><mxCell id="f8bVFRr4BjQ2tfwV-ElS-15" value="Postuler à des offres d'emploi" style="rounded=0;whiteSpace=wrap;html=1;" parent="1" vertex="1"><mxGeometry x="684" y="371" width="120" height="60" as="geometry"/></mxCell><mxCell id="f8bVFRr4BjQ2tfwV-ElS-17" value="Communication par chat intégré" style="rounded=0;whiteSpace=wrap;html=1;" parent="1" vertex="1"><mxGeometry x="684" y="660" width="120" height="60" as="geometry"/></mxCell><mxCell id="f8bVFRr4BjQ2tfwV-ElS-20" value="Gestion de son compte" style="rounded=0;whiteSpace=wrap;html=1;" parent="1" vertex="1"><mxGeometry x="684" y="120" width="120" height="60" as="geometry"/></mxCell><mxCell id="f8bVFRr4BjQ2tfwV-ElS-22" value="Gestion de ses informations" style="rounded=0;whiteSpace=wrap;html=1;" parent="1" vertex="1"><mxGeometry x="684" y="850" width="120" height="60" as="geometry"/></mxCell><mxCell id="f8bVFRr4BjQ2tfwV-ElS-28" style="edgeStyle=orthogonalEdgeStyle;rounded=0;orthogonalLoop=1;jettySize=auto;html=1;" parent="1" source="f8bVFRr4BjQ2tfwV-ElS-26" target="f8bVFRr4BjQ2tfwV-ElS-1" edge="1"><mxGeometry relative="1" as="geometry"/></mxCell><mxCell id="f8bVFRr4BjQ2tfwV-ElS-26" value="Gestion des avis sur les saisonniers" style="rounded=0;whiteSpace=wrap;html=1;" parent="1" vertex="1"><mxGeometry x="454" y="660" width="120" height="60" as="geometry"/></mxCell><mxCell id="f8bVFRr4BjQ2tfwV-ElS-31" style="edgeStyle=orthogonalEdgeStyle;rounded=0;orthogonalLoop=1;jettySize=auto;html=1;" parent="1" source="f8bVFRr4BjQ2tfwV-ElS-29" target="f8bVFRr4BjQ2tfwV-ElS-3" edge="1"><mxGeometry relative="1" as="geometry"><Array as="points"><mxPoint x="84" y="880"/></Array></mxGeometry></mxCell><mxCell id="f8bVFRr4BjQ2tfwV-ElS-29" value="Gestion des avis sur les employeurs" style="rounded=0;whiteSpace=wrap;html=1;" parent="1" vertex="1"><mxGeometry x="24" y="660" width="120" height="60" as="geometry"/></mxCell><mxCell id="2" value="Création de son compte" style="rounded=0;whiteSpace=wrap;html=1;" parent="1" vertex="1"><mxGeometry x="684" y="-40" width="120" height="60" as="geometry"/></mxCell><mxCell id="3" style="edgeStyle=orthogonalEdgeStyle;rounded=0;orthogonalLoop=1;jettySize=auto;html=1;entryX=0;entryY=0.5;entryDx=0;entryDy=0;" parent="1" target="2" edge="1"><mxGeometry relative="1" as="geometry"><Array as="points"><mxPoint x="575" y="500"/><mxPoint x="624" y="500"/><mxPoint x="624" y="-10"/></Array><mxPoint x="574" y="500" as="sourcePoint"/><mxPoint x="685" y="321" as="targetPoint"/></mxGeometry></mxCell><mxCell id="4" value="Connexion à son compte" style="rounded=0;whiteSpace=wrap;html=1;" parent="1" vertex="1"><mxGeometry x="684" y="40" width="120" height="60" as="geometry"/></mxCell><mxCell id="5" style="edgeStyle=orthogonalEdgeStyle;rounded=0;orthogonalLoop=1;jettySize=auto;html=1;entryX=0;entryY=0.5;entryDx=0;entryDy=0;" parent="1" target="4" edge="1"><mxGeometry relative="1" as="geometry"><Array as="points"><mxPoint x="574" y="500"/><mxPoint x="624" y="500"/><mxPoint x="624" y="70"/></Array><mxPoint x="574" y="500" as="sourcePoint"/><mxPoint x="684" y="321" as="targetPoint"/></mxGeometry></mxCell><mxCell id="6" value="Suppression de son compte" style="rounded=0;whiteSpace=wrap;html=1;" parent="1" vertex="1"><mxGeometry x="684" y="200" width="120" height="60" as="geometry"/></mxCell><mxCell id="7" style="edgeStyle=orthogonalEdgeStyle;rounded=0;orthogonalLoop=1;jettySize=auto;html=1;entryX=0;entryY=0.5;entryDx=0;entryDy=0;" parent="1" target="6" edge="1"><mxGeometry relative="1" as="geometry"><Array as="points"><mxPoint x="624" y="500"/><mxPoint x="624" y="231"/></Array><mxPoint x="574" y="500" as="sourcePoint"/><mxPoint x="684" y="231" as="targetPoint"/></mxGeometry></mxCell><mxCell id="8" value="Changer de catégorie de job préférée" style="rounded=0;whiteSpace=wrap;html=1;" parent="1" vertex="1"><mxGeometry x="684" y="281" width="120" height="60" as="geometry"/></mxCell><mxCell id="9" style="edgeStyle=orthogonalEdgeStyle;rounded=0;orthogonalLoop=1;jettySize=auto;html=1;entryX=0;entryY=0.5;entryDx=0;entryDy=0;" parent="1" target="8" edge="1"><mxGeometry relative="1" as="geometry"><Array as="points"><mxPoint x="574" y="500"/><mxPoint x="624" y="500"/><mxPoint x="624" y="311"/></Array><mxPoint x="574" y="500" as="sourcePoint"/><mxPoint x="684" y="231" as="targetPoint"/></mxGeometry></mxCell><mxCell id="10" value="Visualisation des avis sur les saisonniers" style="rounded=0;whiteSpace=wrap;html=1;" parent="1" vertex="1"><mxGeometry x="304" y="660" width="120" height="60" as="geometry"/></mxCell><mxCell id="11" style="edgeStyle=orthogonalEdgeStyle;rounded=0;orthogonalLoop=1;jettySize=auto;html=1;exitX=0.5;exitY=0;exitDx=0;exitDy=0;exitPerimeter=0;" parent="1" source="f8bVFRr4BjQ2tfwV-ElS-3" target="10" edge="1"><mxGeometry relative="1" as="geometry"><mxPoint x="569" y="860" as="sourcePoint"/><mxPoint x="524" y="730" as="targetPoint"/></mxGeometry></mxCell><mxCell id="12" style="edgeStyle=orthogonalEdgeStyle;rounded=0;orthogonalLoop=1;jettySize=auto;html=1;exitX=0.5;exitY=0;exitDx=0;exitDy=0;" parent="1" source="10" target="f8bVFRr4BjQ2tfwV-ElS-1" edge="1"><mxGeometry relative="1" as="geometry"><mxPoint x="524" y="670" as="sourcePoint"/><mxPoint x="569" y="540" as="targetPoint"/></mxGeometry></mxCell><mxCell id="13" value="Retirer sa candidature à une offre d'emploi" style="rounded=0;whiteSpace=wrap;html=1;" parent="1" vertex="1"><mxGeometry x="684" y="450" width="120" height="60" as="geometry"/></mxCell><mxCell id="14" value="Confirmer une prise de poste" style="rounded=0;whiteSpace=wrap;html=1;" parent="1" vertex="1"><mxGeometry x="684" y="530" width="120" height="60" as="geometry"/></mxCell><mxCell id="15" value="" style="edgeStyle=orthogonalEdgeStyle;rounded=0;orthogonalLoop=1;jettySize=auto;html=1;" parent="1" edge="1"><mxGeometry relative="1" as="geometry"><mxPoint x="574" y="499" as="sourcePoint"/><mxPoint x="684" y="480" as="targetPoint"/><Array as="points"><mxPoint x="624" y="499"/><mxPoint x="624" y="480"/><mxPoint x="684" y="480"/></Array></mxGeometry></mxCell><mxCell id="16" value="" style="edgeStyle=orthogonalEdgeStyle;rounded=0;orthogonalLoop=1;jettySize=auto;html=1;entryX=0;entryY=0.5;entryDx=0;entryDy=0;" parent="1" target="14" edge="1"><mxGeometry relative="1" as="geometry"><mxPoint x="574" y="499" as="sourcePoint"/><mxPoint x="684" y="400" as="targetPoint"/><Array as="points"><mxPoint x="624" y="499"/><mxPoint x="624" y="560"/></Array></mxGeometry></mxCell><mxCell id="17" value="Accepter une candidature" style="rounded=0;whiteSpace=wrap;html=1;" parent="1" vertex="1"><mxGeometry x="684" y="1010" width="120" height="60" as="geometry"/></mxCell><mxCell id="18" value="Refuser une candidature" style="rounded=0;whiteSpace=wrap;html=1;" parent="1" vertex="1"><mxGeometry x="684" y="1090" width="120" height="60" as="geometry"/></mxCell><mxCell id="19" style="edgeStyle=orthogonalEdgeStyle;rounded=0;orthogonalLoop=1;jettySize=auto;html=1;entryX=0;entryY=0.5;entryDx=0;entryDy=0;" edge="1" parent="1" target="17"><mxGeometry relative="1" as="geometry"><Array as="points"><mxPoint x="624" y="880"/><mxPoint x="624" y="1040"/></Array><mxPoint x="574" y="880" as="sourcePoint"/><mxPoint x="684" y="960" as="targetPoint"/></mxGeometry></mxCell><mxCell id="20" style="edgeStyle=orthogonalEdgeStyle;rounded=0;orthogonalLoop=1;jettySize=auto;html=1;entryX=0;entryY=0.5;entryDx=0;entryDy=0;" edge="1" parent="1" target="18"><mxGeometry relative="1" as="geometry"><Array as="points"><mxPoint x="624" y="880"/><mxPoint x="624" y="1120"/></Array><mxPoint x="574" y="880" as="sourcePoint"/><mxPoint x="684" y="1040" as="targetPoint"/></mxGeometry></mxCell><mxCell id="21" value="Visualisation des avis sur les employeurs" style="rounded=0;whiteSpace=wrap;html=1;" vertex="1" parent="1"><mxGeometry x="164" y="660" width="120" height="60" as="geometry"/></mxCell><mxCell id="22" style="edgeStyle=orthogonalEdgeStyle;rounded=0;orthogonalLoop=1;jettySize=auto;html=1;entryX=0.5;entryY=0;entryDx=0;entryDy=0;" edge="1" parent="1" target="21"><mxGeometry relative="1" as="geometry"><mxPoint x="544" y="500" as="sourcePoint"/><mxPoint x="84" y="660" as="targetPoint"/></mxGeometry></mxCell><mxCell id="23" style="edgeStyle=orthogonalEdgeStyle;rounded=0;orthogonalLoop=1;jettySize=auto;html=1;" edge="1" parent="1"><mxGeometry relative="1" as="geometry"><Array as="points"><mxPoint x="224" y="720"/><mxPoint x="224" y="880"/></Array><mxPoint x="224" y="730" as="sourcePoint"/><mxPoint x="544" y="880" as="targetPoint"/></mxGeometry></mxCell></root></mxGraphModel></diagram></mxfile>